<svg xmlns="http://www.w3.org/2000/svg" x="0px" y="0px" width="100" height="100" viewBox="0 0 64 64">
<path fill="#80a6dd" d="M35,13.729V1h-6v3.445c0,4.751-2.531,9.238-6.76,11.404C16.082,19.004,11.914,25.048,11.914,32 c0,9.276,7.42,16.935,17.086,18.271V63h6v-3.445c0-4.751,2.531-9.238,6.76-11.404C47.918,44.996,52.086,38.952,52.086,32 C52.086,22.724,44.666,15.065,35,13.729z M19,32c0-5.783,3.779-10.678,9-12.366v24.733C22.779,42.678,19,37.783,19,32z M36,44.366 V19.634c5.221,1.688,9,6.583,9,12.366S41.221,42.678,36,44.366z"></path><path fill="#8d6c9f" d="M39,2h2c0.552,0,1-0.448,1-1s-0.448-1-1-1h-2c-0.552,0-1,0.448-1,1S38.448,2,39,2z"></path><path fill="#8d6c9f" d="M39,7h2c0.552,0,1-0.448,1-1s-0.448-1-1-1h-2c-0.552,0-1,0.448-1,1S38.448,7,39,7z"></path><path fill="#8d6c9f" d="M39,12h2c0.552,0,1-0.448,1-1s-0.448-1-1-1h-2c-0.552,0-1,0.448-1,1S38.448,12,39,12z"></path><path fill="#8d6c9f" d="M25,52h-2c-0.552,0-1,0.447-1,1s0.448,1,1,1h2c0.552,0,1-0.447,1-1S25.552,52,25,52z"></path><path fill="#8d6c9f" d="M25,57h-2c-0.552,0-1,0.447-1,1s0.448,1,1,1h2c0.552,0,1-0.447,1-1S25.552,57,25,57z"></path><path fill="#8d6c9f" d="M25,62h-2c-0.552,0-1,0.447-1,1s0.448,1,1,1h2c0.552,0,1-0.447,1-1S25.552,62,25,62z"></path><path fill="#8d6c9f" d="M36,12.875V1c0-0.552-0.448-1-1-1h-6c-0.552,0-1,0.448-1,1v3.445c0,4.453-2.44,8.58-6.216,10.514 c-6.705,3.436-10.87,9.965-10.87,17.041c0,9.295,7.286,17.377,17.086,19.125V63c0,0.553,0.448,1,1,1h6c0.552,0,1-0.447,1-1v-3.445 c0-4.453,2.44-8.58,6.216-10.515c6.705-3.435,10.87-9.964,10.87-17.04C53.086,22.705,45.8,14.623,36,12.875z M41.304,47.261 C36.867,49.533,34,54.359,34,59.555V62h-4V50.271c0-0.499-0.368-0.922-0.863-0.99C19.888,48.002,12.914,40.572,12.914,32 c0-6.322,3.749-12.169,9.782-15.261C27.133,14.466,30,9.641,30,4.445V2h4v11.729c0,0.5,0.368,0.922,0.863,0.991 c9.249,1.278,16.223,8.707,16.223,17.28C51.086,38.322,47.338,44.17,41.304,47.261z"></path><path fill="#8d6c9f" d="M28.75,19.425C23.009,20.906,19,26.077,19,32c0,5.924,4.009,11.095,9.75,12.575 c0.082,0.021,0.166,0.031,0.25,0.031c0.219,0,0.436-0.072,0.612-0.21c0.245-0.188,0.388-0.48,0.388-0.79v-4.193V24.587v-4.193 c0-0.309-0.143-0.601-0.388-0.791S29.047,19.346,28.75,19.425z M21,32c0-4.569,2.82-8.609,7-10.235v2.204 c-3.05,1.516-5,4.584-5,8.031s1.95,6.514,5,8.031v2.204C23.82,40.609,21,36.569,21,32z M28,37.744c-1.86-1.289-3-3.411-3-5.744 s1.14-4.455,3-5.744V37.744z"></path><path fill="#8d6c9f" d="M35.25,19.425c-0.297-0.079-0.618-0.011-0.862,0.178C34.143,19.792,34,20.084,34,20.394v4.193 v14.826v4.193c0,0.31,0.143,0.602,0.388,0.79c0.177,0.138,0.393,0.21,0.612,0.21c0.083,0,0.167-0.011,0.25-0.031 C40.991,43.095,45,37.924,45,32C45,26.077,40.991,20.906,35.25,19.425z M36,26.256c1.86,1.289,3,3.411,3,5.744 s-1.14,4.455-3,5.744V26.256z M36,42.235v-2.204c3.05-1.516,5-4.584,5-8.031s-1.95-6.515-5-8.031v-2.204 c4.18,1.626,7,5.667,7,10.235C43,36.569,40.18,40.609,36,42.235z"></path>
</svg>